<?xml version="1.0" encoding="UTF-8" standalone="no"?>
<!-- Created with Inkscape (http://www.inkscape.org/) -->

<svg
   xmlns:dc="http://purl.org/dc/elements/1.1/"
   xmlns:cc="http://creativecommons.org/ns#"
   xmlns:rdf="http://www.w3.org/1999/02/22-rdf-syntax-ns#"
   xmlns:svg="http://www.w3.org/2000/svg"
   xmlns="http://www.w3.org/2000/svg"
   xmlns:sodipodi="http://sodipodi.sourceforge.net/DTD/sodipodi-0.dtd"
   xmlns:inkscape="http://www.inkscape.org/namespaces/inkscape"
   id="svg2"
   version="1.1"
   inkscape:version="0.91 r13725"
   xml:space="preserve"
   width="72"
   height="72"
   viewBox="0 0 72 72"
   sodipodi:docname="cutlets.svg"><metadata
     id="metadata8"><rdf:RDF><cc:Work
         rdf:about=""><dc:format>image/svg+xml</dc:format><dc:type
           rdf:resource="http://purl.org/dc/dcmitype/StillImage" /><dc:title></dc:title></cc:Work></rdf:RDF></metadata><defs
     id="defs6"><clipPath
       clipPathUnits="userSpaceOnUse"
       id="clipPath16"><path
         d="m 0,1080 1920,0 L 1920,0 0,0 0,1080 Z"
         id="path18"
         inkscape:connector-curvature="0" /></clipPath><clipPath
       clipPathUnits="userSpaceOnUse"
       id="clipPath136"><path
         d="m 0,1080 1920,0 L 1920,0 0,0 0,1080 Z"
         id="path138"
         inkscape:connector-curvature="0" /></clipPath></defs><sodipodi:namedview
     pagecolor="#ffffff"
     bordercolor="#666666"
     borderopacity="1"
     objecttolerance="10"
     gridtolerance="10"
     guidetolerance="10"
     inkscape:pageopacity="0"
     inkscape:pageshadow="2"
     inkscape:window-width="1407"
     inkscape:window-height="791"
     id="namedview4"
     showgrid="false"
     inkscape:zoom="6.0339778"
     inkscape:cx="57.172868"
     inkscape:cy="27.314217"
     inkscape:window-x="0"
     inkscape:window-y="0"
     inkscape:window-maximized="0"
     inkscape:current-layer="g10" /><g
     id="g10"
     inkscape:groupmode="layer"
     inkscape:label="cutlet-1"
     transform="matrix(1.25,0,0,-1.25,0,72)"><g
       id="g4451"
       transform="matrix(0.06047933,0,0,0.06047933,-29.66667,-7.2934997)"><g
         transform="translate(592,463)"
         id="g20"><path
           inkscape:connector-curvature="0"
           id="path22"
           style="fill:#888888;fill-opacity:1;fill-rule:nonzero;stroke:none"
           d="m 0,0 c 0,0 85,-38 150,-49 0,0 126,-22 217,-21 91,1 173,2 302,35 l 40,26 C 709,-9 467,-45 464,-45 461,-45 207,-59 5,7 L -16,15 0,0 Z" /></g><path
         d="m 638,653 c 0,0 -165,-30 -145,-105 0,0 8,-108 435,-130 0.49,-0.656 298.641,-10.879 430,59 0,0 72,33 84,76 0,0 4,32 -34,53 0,0 -36,23 -62,33 -26,10 -103,34 -132,37 l -232,12 c 0,0 -257,-8 -344,-35"
         style="fill:#dbcece;fill-opacity:1;fill-rule:nonzero;stroke:#000000;stroke-width:1.60000002;stroke-miterlimit:4;stroke-dasharray:none;stroke-opacity:1"
         id="path26"
         inkscape:connector-curvature="0" /><g
         style="stroke:#000000;stroke-width:1.60000002;stroke-miterlimit:4;stroke-dasharray:none;stroke-opacity:1"
         transform="translate(1009,617)"
         id="g28"><path
           inkscape:connector-curvature="0"
           id="path30"
           style="fill:#b2b2b2;fill-opacity:1;fill-rule:nonzero;stroke:#000000;stroke-width:1.60000002;stroke-miterlimit:4;stroke-dasharray:none;stroke-opacity:1"
           d="m 0,0 c 0,0 -386,-17 -398,-42 0,0 -43,-14 -32,-27 11,-13 -14,-106 443,-91 0,0 233,22 332,61 0,0 216,105 -345,99" /></g><g
         transform="translate(986,743)"
         id="g32"><path
           inkscape:connector-curvature="0"
           id="path34"
           style="fill:#9b5b2f;fill-opacity:1;fill-rule:nonzero;stroke:none"
           d="m 0,0 c 0,0 -18,-2 -26,-3 l -18,0 c 0,0 -14,-6 -26,5 0,0 -13,8 -19,-7 0,0 -6,-17 -29,0 0,0 -16,1 -13,-8 0,0 -36,-2 -40,5 0,0 -16,1 -34,-9 -18,-10 24,-8 24,-8 l 20,-6 29,0 56,7 65,16 c 0,0 33,-2 34,-1 L 0,0 Z" /></g><g
         style="stroke:#000000;stroke-width:1.60000002;stroke-miterlimit:4;stroke-dasharray:none;stroke-opacity:1"
         transform="translate(736,575)"
         id="g36"><path
           inkscape:connector-curvature="0"
           id="path38"
           style="fill:#97532c;fill-opacity:1;fill-rule:nonzero;stroke:#000000;stroke-width:1.60000002;stroke-miterlimit:4;stroke-dasharray:none;stroke-opacity:1"
           d="m 0,0 c 0,0 -89,26 -64,57 0,0 -22,41 9,44 0,0 -3,38 41,25 0,0 -15,26 23,19 0,0 13,0 20,20 0,0 13,11 28,0 0,0 27,27 54,20 0,0 2,17 19,10 l 28,-4 c 0,0 18,24 30,14 0,0 21,23 43,10 0,0 38,22 48,-3 0,0 28,14 26,-12 0,0 46,16 61,5 0,0 22,-11 15,-22 0,0 44,16 58,-35 L 449,80 439,34 0,0 Z" /></g><g
         transform="translate(1000,725)"
         id="g40"><path
           inkscape:connector-curvature="0"
           id="path42"
           style="fill:#9b5b2f;fill-opacity:1;fill-rule:nonzero;stroke:none"
           d="M 0,0 C 0,0 -14,7 -22,6 L -43,2 c 0,0 -15,-11 -27,0 0,0 -13,8 -19,-7 0,0 -6,-17 -29,0 0,0 -16,1 -13,-8 0,0 -36,-2 -40,5 0,0 -16,1 -34,-9 -18,-10 24,-8 24,-8 l 20,-6 29,0 56,7 65,16 c 0,0 33,18 34,19 L 0,0 Z" /></g><g
         transform="translate(818.0508,653.9917)"
         id="g44"><path
           inkscape:connector-curvature="0"
           id="path46"
           style="fill:#9b5b2f;fill-opacity:1;fill-rule:nonzero;stroke:none"
           d="M 0,0 C 0,0 -7.288,5.091 0,9.165 7.288,13.238 -32.067,1.019 -40.813,5.091 l -37.898,-18.329 c 0,0 -14.577,-21.384 17.491,-11.201 32.068,10.183 -18.949,-13.238 -18.949,-13.238 0,0 -39.355,15.275 -10.203,31.567 0,0 8.746,18.33 -33.525,2.037 0,0 -42.271,-33.604 -11.662,-44.805 30.611,-11.202 53.933,-4.074 53.933,-4.074 l 16.033,5.092 c 0,0 1.458,21.384 56.847,41.75 L -1.458,-4.073 18.949,1.019 0,0 Z" /></g><g
         transform="translate(720.207,643.5615)"
         id="g48"><path
           inkscape:connector-curvature="0"
           id="path50"
           style="fill:#823817;fill-opacity:1;fill-rule:nonzero;stroke:none"
           d="m 0,0 c -2.891,6.122 4.979,19.164 4.979,19.164 0,0 -14.935,6.388 -26.55,-8.943 0,0 -43.144,-54.937 36.506,-43.439 l 9.956,-1.277 c 0,0 16.593,10.221 24.89,6.388 0,0 -3.319,34.495 68.034,53.659 l 4.978,8.943 -1.659,8.943 c 0,0 -9.957,-11.498 -26.55,-10.22 0,0 -19.913,6.387 -36.506,0 L 34.847,20.441 c 0,0 -11.616,-19.164 -1.659,-17.886 L 44.803,0 C 44.803,0 13.275,-28.107 0,0" /></g><g
         transform="translate(708.0117,619.2207)"
         id="g52"><path
           inkscape:connector-curvature="0"
           id="path54"
           style="fill:#7f310e;fill-opacity:1;fill-rule:nonzero;stroke:none"
           d="m 0,0 c -2.613,4.479 4.5,14.021 4.5,14.021 0,0 -13.499,4.673 -23.998,-6.543 0,0 -38.996,-40.192 32.997,-31.78 l 8.999,-0.934 c 0,0 14.998,7.477 22.498,4.673 0,0 -3,25.236 61.493,39.257 l 4.499,6.542 -1.5,6.543 c 0,0 -8.999,-8.412 -23.997,-7.477 0,0 -17.998,4.673 -32.996,0 L 31.497,14.955 c 0,0 -10.499,-14.02 -1.5,-13.085 L 40.496,0 C 40.496,0 11.999,-20.563 0,0" /></g><g
         transform="translate(939,791)"
         id="g56"><path
           inkscape:connector-curvature="0"
           id="path58"
           style="fill:#932317;fill-opacity:1;fill-rule:nonzero;stroke:none"
           d="m 0,0 c 0,0 21,-35 27,-48 6,-13 13,-10 24,0 0,0 16,22 33,6 l 17,-18 c 0,0 10,-13 10,20 L 107.934,-14.112 102,-16 c 0,0 3,25 -27,12 0,0 -3,24 -47,3 0,0 -7.726,3.905 -15.363,3.953 L 4.208,1.374 0,0 Z" /></g><g
         transform="translate(949,793.5996)"
         id="g60"><path
           inkscape:connector-curvature="0"
           id="path62"
           style="fill:#af2d15;fill-opacity:1;fill-rule:nonzero;stroke:none"
           d="m 0,0 c 0,0 19.346,-32.243 24.873,-44.219 5.527,-11.976 11.977,-9.213 22.11,0 0,0 14.74,20.267 30.401,5.527 l 15.661,-16.582 c 0,0 9.212,-11.976 9.212,18.425 L 103,-15.6 l -9.034,0.86 c 0,0 2.763,23.031 -24.873,11.055 0,0 -2.764,22.11 -43.298,2.764 0,0 -7.118,3.597 -14.153,3.641 L 3.876,1.266 0,0 Z" /></g><g
         transform="translate(772,613)"
         id="g64"><path
           inkscape:connector-curvature="0"
           id="path66"
           style="fill:#421405;fill-opacity:1;fill-rule:nonzero;stroke:none"
           d="m 0,0 c 0,0 9,-17 34,-17 0,0 8,9 13,-3 0,0 -9,-31 -3,-33 0,0 -17,18 -12,25 0,0 -2,-11 -8,-14 0,0 -33,18 -34,38 0,0 -1,7 9,9 L 0,0 Z" /></g><g
         style="stroke:#000000;stroke-width:1.60000002;stroke-miterlimit:4;stroke-dasharray:none;stroke-opacity:1"
         transform="translate(826,511)"
         id="g68"><path
           inkscape:connector-curvature="0"
           id="path70"
           style="fill:#97532c;fill-opacity:1;fill-rule:nonzero;stroke:#000000;stroke-width:1.60000002;stroke-miterlimit:4;stroke-dasharray:none;stroke-opacity:1"
           d="m 0,0 c 0,0 -62,-20 -108,20 0,0 -37,37 0,90 0,0 12,12 21,7 0,0 5,57 80,47 0,0 -28,37 106,35 0.14,0.009 89.271,42.017 116,6 0,0 42,27 70,1 0,0 35,22 53,-7 0,0 20,0 29,-17 0,0 23,-8 23,-33 0,0 13,-19 7,-36 0,0 31,-17 6,-40 L 385,55 306,23 C 306,23 97,1 60,1 23,1 0,0 0,0" /></g><g
         transform="translate(972.1963,718.8081)"
         id="g72"><path
           inkscape:connector-curvature="0"
           id="path74"
           style="fill:#820e0c;fill-opacity:1;fill-rule:nonzero;stroke:none"
           d="m 0,0 c 0,0 -38.759,-32.328 -3.143,-76.919 0,0 21.999,-21.18 42.951,-10.033 0,0 6.285,7.804 0,17.837 0,0 -7.333,26.754 12.57,27.868 0,0 10.476,0 24.094,-33.442 0,0 14.666,-46.82 30.379,-54.623 0,0 9.427,-4.459 13.618,13.376 0,0 3.142,35.673 -23.046,55.739 l 3.381,5.389 c 0,0 20.713,16.906 47.949,-36.603 l 5.051,-9.397 c 0,0 4.908,14.061 -3,19 0,0 4.234,13.808 -5.194,17.152 0,0 -5.238,7.803 3.143,3.344 0,0 18.855,-25.64 31.427,-13.377 0,0 26.188,43.476 6.285,60.197 0,0 -5.238,19.994 -20.952,22.26 -15.713,2.265 -29.33,-8.883 -29.33,-8.883 0,0 -12.346,13.858 -34.457,12.503 C 79.614,10.033 64.948,-1.115 62.854,-2.229 62.813,-2.216 48.352,13.046 15.968,11.481 L 0,0 Z" /></g><g
         transform="translate(983,718)"
         id="g76"><path
           inkscape:connector-curvature="0"
           id="path78"
           style="fill:#991d15;fill-opacity:1;fill-rule:nonzero;stroke:none"
           d="m 0,0 c 0,0 -37,-29 -3,-69 0,0 21,-19 41,-9 0,0 6,7 0,16 0,0 -7,24 12,25 0,0 10,0 23,-30 0,0 14,-42 29,-49 0,0 9,-4 13,12 0,0 3,32 -22,50 l -7,5 c 0,0 30,15 56,-33 l 1,-9 c 0,0 2,-4 2,5 0,0 3,25 -6,28 0,0 -5,7 3,3 0,0 18,-23 30,-12 0,0 25,39 6,54 0,0 -7.001,19.968 -22.001,22 C 140.999,11.032 127,0 127,0 127,0 118.215,11.431 97.107,10.216 76,9 62,2 60,1 60,1 50,16 14,13 L 0,0 Z" /></g><g
         transform="translate(978.7676,710)"
         id="g80"><path
           inkscape:connector-curvature="0"
           id="path82"
           style="fill:#991d15;fill-opacity:1;fill-rule:nonzero;stroke:none"
           d="m 0,0 c 0,0 -37.846,-29 -3.068,-69 0,0 21.48,-19 41.937,-9 0,0 6.137,7 0,16 0,0 -7.16,24 12.275,25 0,0 10.228,0 23.525,-30 0,0 14.32,-42 29.663,-49 0,0 9.206,-4 13.297,12 0,0 3.069,32 -22.503,50 l -7.16,5 c 0,0 30.686,15 57.28,-33 l 1.024,-9 c 0,0 2.045,-4 2.045,5 0,0 3.069,25 -6.137,28 0,0 -5.115,7 3.068,3 0,0 18.412,-23 30.687,-12 0,0 25.571,39 6.136,54 0,0 -5.115,17.936 -20.458,19.968 C 146.269,9 132.972,-1 132.972,-1 c 0,0 -12.054,12.431 -33.645,11.216 C 77.737,9 63.418,-1 61.372,-2 c 0,0 -13.823,13.599 -45.78,12.299 L 0,0 Z" /></g><g
         transform="translate(983,713)"
         id="g84"><path
           inkscape:connector-curvature="0"
           id="path86"
           style="fill:#991d15;fill-opacity:1;fill-rule:nonzero;stroke:none"
           d="m 0,0 c 0,0 -37,-29 -3,-69 0,0 21,-19 41,-9 0,0 6,7 0,16 0,0 -7,24 12,25 0,0 10,0 23,-30 0,0 14,-42 29,-49 0,0 9,-4 13,12 0,0 3,32 -22,50 l -7,5 c 0,0 30,15 56,-33 l 1,-9 c 0,0 2,-4 2,5 0,0 3,25 -6,28 0,0 -5,7 3,3 0,0 18,-23 30,-12 0,0 25,39 6,54 0,0 -5.001,17.936 -20.001,19.968 C 142.999,9 130,-1 130,-1 130,-1 118.215,11.431 97.107,10.216 76,9 62,-1 60,-2 60,-2 46.485,11.599 15.243,10.299 L 0,0 Z" /></g><g
         transform="translate(995.6885,718)"
         id="g88"><path
           inkscape:connector-curvature="0"
           id="path90"
           style="fill:#9f2812;fill-opacity:1;fill-rule:nonzero;stroke:none"
           d="m 0,0 -9.748,-10.2 c 0,0 -15.841,-35.133 13.404,-40.8 0,0 8.53,0 9.748,7.933 0,0 -14.623,14.734 -6.092,36.267 L 7.312,0 0,0 Z" /></g><g
         transform="translate(1000.6885,718)"
         id="g92"><path
           inkscape:connector-curvature="0"
           id="path94"
           style="fill:#8f1804;fill-opacity:1;fill-rule:nonzero;stroke:none"
           d="m 0,0 -9.748,-10.2 c 0,0 -15.841,-35.133 13.404,-40.8 0,0 8.53,0 9.748,7.933 0,0 -14.623,14.734 -6.092,36.267 L 7.312,0 0,0 Z" /></g><g
         transform="translate(1029,714.2285)"
         id="g96"><path
           inkscape:connector-curvature="0"
           id="path98"
           style="fill:#cc392e;fill-opacity:1;fill-rule:nonzero;stroke:none"
           d="m 0,0 c 0,0 7,-13.858 15,-12.935 0,0 12,0.924 18,3.696 0,0 4,-22.173 18,-24.021 0,0 16,-7.39 11,6.468 0,0 -14,4.619 -15,7.391 0,0 -7,11.086 -1,19.401 l 3,1.848 c 0,0 -11,0.923 -16,-3.696 L 19,-8.315 c 0,0 -3,-1.848 -5,1.848 0,0 -8,9.238 -10,8.315 C 2,0.924 -1,2.771 -1,2.771 L 0,0 Z" /></g><g
         transform="translate(1110.0684,691.0942)"
         id="g100"><path
           inkscape:connector-curvature="0"
           id="path102"
           style="fill:#cc392e;fill-opacity:1;fill-rule:nonzero;stroke:none"
           d="m 0,0 c 0,0 4.302,-19.748 24.735,-19.748 0,0 12.906,-3.118 9.679,9.354 0,0 -12.905,8.315 -12.905,10.394 0,2.079 -10.755,10.394 1.075,19.748 l 8.603,4.158 C 31.187,23.906 -7.528,24.945 0,0" /></g><g
         transform="translate(997.5957,718)"
         id="g104"><path
           inkscape:connector-curvature="0"
           id="path106"
           style="fill:#cc392e;fill-opacity:1;fill-rule:nonzero;stroke:none"
           d="m 0,0 -9.748,-10.2 c 0,0 -15.841,-35.133 13.404,-40.8 0,0 8.53,0 9.748,7.933 0,0 -14.622,14.734 -6.092,36.267 L 7.312,0 0,0 Z" /></g><g
         transform="translate(985,716.6953)"
         id="g108"><path
           inkscape:connector-curvature="0"
           id="path110"
           style="fill:#8c180b;fill-opacity:1;fill-rule:nonzero;stroke:none"
           d="m 0,0 c 0,0 -27,-24.236 -7,-55.082 20,-30.846 28,-13.22 28,-13.22 0,0 3,42.964 19,42.964 16,0 22,-4.407 22,-4.407 l 13,-20.931 21,-55.082 c 0,0 5,-6.61 7,0 0,0 -11,35.253 -19,48.472 0,0 -28,28.643 -2,25.338 0,0 10,-14.321 23,-6.61 0,0 10,-2.203 17,-9.914 0,0 9,7.711 13,1.101 0,0 14,-8.813 22,-12.118 0,0 12,-11.016 15,9.915 0,0 1,35.252 -14,35.252 -15,0 0,-13.219 0,-13.219 0,0 13,-14.321 4,-16.525 0,0 -10,-11.016 -26,3.305 l -21,8.813 -14,2.203 c 0,0 -4,-8.813 -9,-3.304 0,0 -15,0 -10,15.423 l 0,9.914 -10,-6.61 -15,-1.101 c 0,0 -26,6.61 -32,-5.508 0,0 -9,-6.61 -7,-14.322 L 15,-60.59 c 0,0 1,-14.322 -13,1.101 0,0 -18,35.253 0,49.574 L 10,0 13,3.305 0,0 Z" /></g><g
         transform="translate(986,719.6953)"
         id="g112"><path
           inkscape:connector-curvature="0"
           id="path114"
           style="fill:#c9200a;fill-opacity:1;fill-rule:nonzero;stroke:none"
           d="m 0,0 c 0,0 -27,-24.236 -7,-55.082 20,-30.846 28,-13.22 28,-13.22 0,0 3,42.964 19,42.964 16,0 22,-4.407 22,-4.407 l 13,-20.931 21,-55.082 c 0,0 5,-6.61 7,0 0,0 -11,35.253 -19,48.472 0,0 -28,28.643 -2,25.338 0,0 10,-14.321 23,-6.61 0,0 10,-2.203 17,-9.914 0,0 9,7.711 13,1.101 0,0 14,-8.813 22,-12.118 0,0 12,-11.016 15,9.915 0,0 1,35.252 -14,35.252 -15,0 0,-13.219 0,-13.219 0,0 13,-14.321 4,-16.525 0,0 -10,-11.016 -26,3.305 l -21,8.813 -14,2.203 c 0,0 -4,-8.813 -9,-3.304 0,0 -15,0 -10,15.423 l 0,9.914 -10,-6.61 -15,-1.101 c 0,0 -26,6.61 -32,-5.508 0,0 -9,-6.61 -7,-14.322 L 15,-60.59 c 0,0 1,-14.322 -13,1.101 0,0 -18,35.253 0,49.574 L 10,0 13,3.305 0,0 Z" /></g><g
         transform="translate(1039,776.8159)"
         id="g116"><path
           inkscape:connector-curvature="0"
           id="path118"
           style="fill:#b72415;fill-opacity:1;fill-rule:nonzero;stroke:none"
           d="m 0,0 -16,-7.644 -5,5.46 c 0,0 3,-24.024 11,-18.564 0,0 13,10.92 15,18.564 L 10,0.184 0,0 Z" /></g><g
         transform="translate(981.2148,794)"
         id="g120"><path
           inkscape:connector-curvature="0"
           id="path122"
           style="fill:#b72415;fill-opacity:1;fill-rule:nonzero;stroke:none"
           d="m 0,0 c 0,0 8.735,-5 8.735,-15 0,0 6.24,-7 19.967,-9 C 42.429,-26 6.239,-40 0,-21 c 0,0 -12.479,-1 -21.215,14 l 7.487,1 c 0,0 1.249,8 16.223,6" /></g><g
         transform="translate(1040,776.252)"
         id="g124"><path
           inkscape:connector-curvature="0"
           id="path126"
           style="fill:#cc392e;fill-opacity:1;fill-rule:nonzero;stroke:none"
           d="m 0,0 -15,-6.252 -2,1 c 0,0 1.571,-15.724 8.429,-11.354 0,0 11.142,8.74 11.6,14.922 L 1,-1.252 0,0 Z" /></g><g
         transform="translate(976.335,794.3657)"
         id="g128"><path
           inkscape:connector-curvature="0"
           id="path130"
           style="fill:#cc392e;fill-opacity:1;fill-rule:nonzero;stroke:none"
           d="m 0,0 c 0,0 5.567,-5.017 4.584,-13.673 0,0 3.64,-6.551 12.965,-9.364 9.325,-2.813 -17.155,-12.079 -19.614,4.859 0,0 -8.755,0.118 -13.339,13.791 l 5.292,0.275 c 0,0 1.652,6.827 11.842,3.915" /></g><g
         transform="translate(942,714.9897)"
         id="g140"><path
           inkscape:connector-curvature="0"
           id="path142"
           style="fill:#9b5b2f;fill-opacity:1;fill-rule:nonzero;stroke:none"
           d="m 0,0 c 0,0 -50,-37.258 -72,-13.423 0,0 -55,-8.206 -38,-43.257 0,0 4,-19.629 -30,-8.412 0,0 -14,9.814 -14,-26.639 0,0 0,-2.805 -14,-12.619 -14,-9.815 -18,5.608 -34,-15.422 0,0 23,-7.011 42,12.618 0,0 14,-2.804 14,15.423 l 6,14.02 c 0,0 29,-15.423 39,16.825 0,0 4,30.845 35,30.845 0,0 31,-26.639 60,7.01 L 15,5.01 0,0 Z" /></g><g
         transform="translate(768,625)"
         id="g144"><path
           inkscape:connector-curvature="0"
           id="path146"
           style="fill:#7f310e;fill-opacity:1;fill-rule:nonzero;stroke:none"
           d="m 0,0 c 0,0 -23,7 -22,-18 0,0 -54,-75 22,-75 0,0 220,-32 402,33 0,0 -242,-34 -306,-19 0,0 -107,6 -116,22 0,0 -5,27 28,36 0,0 -30,2 -8,21" /></g><g
         transform="translate(947,707.9897)"
         id="g148"><path
           inkscape:connector-curvature="0"
           id="path150"
           style="fill:#823817;fill-opacity:1;fill-rule:nonzero;stroke:none"
           d="m 0,0 c 0,0 -55,-36.825 -77,-12.99 0,0 -50,-6.639 -33,-41.69 0,0 4,-19.629 -30,-8.412 0,0 -14,9.814 -14,-26.639 0,0 0,-2.805 -14,-12.619 -14,-9.815 -23,8.391 -39,-12.64 0,0 28,-9.793 47,9.836 0,0 14,-2.804 14,15.423 l 6,14.02 c 0,0 29,-15.423 39,16.825 0,0 2,27.896 33,27.896 0,0 33,-23.69 62,9.959 L 10,10.01 0,0 Z" /></g><g
         transform="translate(942,710.9897)"
         id="g152"><path
           inkscape:connector-curvature="0"
           id="path154"
           style="fill:#7f310e;fill-opacity:1;fill-rule:nonzero;stroke:none"
           d="m 0,0 c 0,0 -50,-39.258 -72,-15.423 0,0 -55,-4.206 -38,-39.257 0,0 4,-19.629 -30,-8.412 0,0 -14,9.814 -14,-26.639 0,0 0,-2.805 -14,-12.619 -14,-9.815 -18,5.608 -34,-15.422 0,0 23,-7.011 42,12.618 0,0 14,-2.804 14,15.423 l 6,14.02 c 0,0 29,-15.423 39,16.825 0,0 4,30.845 35,30.845 0,0 31,-26.639 60,7.01 L 15,7.01 0,0 Z" /></g></g></g></svg>